<?xml version="1.0" encoding="UTF-8"?>
<svg version="1.1" xmlns="http://www.w3.org/2000/svg" width="225" height="225">
<path d="M0 0 C74.25 0 148.5 0 225 0 C225 74.25 225 148.5 225 225 C150.75 225 76.5 225 0 225 C0 150.75 0 76.5 0 0 Z " fill="#F95C01" transform="translate(0,0)"/>
<path d="M0 0 C0.09348304 13.99503121 0.16373251 27.99001394 0.20724869 41.98529339 C0.22813313 48.48371387 0.2564671 54.98192476 0.30175781 61.48022461 C0.34518397 67.75015641 0.36913065 74.01988647 0.37950897 80.28995705 C0.38690607 82.68340036 0.40135063 85.0768325 0.42292023 87.47019005 C0.45191031 90.81980725 0.45595771 94.1685883 0.45410156 97.51831055 C0.46848267 98.51021393 0.48286377 99.50211731 0.49768066 100.52407837 C0.47151617 104.88082666 0.42114776 107.31572099 -1.90338135 111.09260559 C-4.96298855 113.87607681 -6.58733086 114.12018099 -10.625 114.0625 C-11.44226563 114.05347656 -12.25953125 114.04445313 -13.1015625 114.03515625 C-13.72804687 114.02355469 -14.35453125 114.01195312 -15 114 C-15.09343942 99.72692907 -15.16371123 85.45390557 -15.20724869 71.18059158 C-15.22814226 64.55322935 -15.25649282 57.92607227 -15.30175781 51.29882812 C-15.3451515 44.90570809 -15.36912377 38.51278564 -15.37950897 32.11952972 C-15.38691192 29.67781207 -15.40136773 27.23610549 -15.42292023 24.79447174 C-15.45186718 21.37999418 -15.45595952 17.96633791 -15.45410156 14.55175781 C-15.46848267 13.53755768 -15.48286377 12.52335754 -15.49768066 11.47842407 C-15.47490608 7.62213557 -15.4084515 4.81011685 -13.65911865 1.34051514 C-9.305966 -0.85399657 -4.77995556 -0.2966869 0 0 Z " fill="#FDF2E6" transform="translate(171,57)"/>
<path d="M0 0 C0.0700808 14.14271531 0.12278414 28.28540369 0.15543652 42.42825699 C0.17110635 48.99503849 0.19236894 55.56170351 0.22631836 62.12841797 C0.2588644 68.46317442 0.27684308 74.79781869 0.28463173 81.13265228 C0.29018376 83.55202755 0.30102522 85.97139654 0.31719017 88.39072418 C0.33890081 91.77396515 0.34196954 95.15673988 0.34057617 98.54003906 C0.35675491 100.04731316 0.35675491 100.04731316 0.3732605 101.58503723 C0.36707451 102.9689994 0.36707451 102.9689994 0.36076355 104.38092041 C0.36352893 105.18103672 0.36629431 105.98115303 0.36914349 106.80551529 C-0.11467285 109.68170731 -0.87470059 110.99759585 -3 113 C-5.69921875 113.390625 -5.69921875 113.390625 -8.6875 113.25 C-9.68136719 113.21390625 -10.67523438 113.1778125 -11.69921875 113.140625 C-12.45847656 113.09421875 -13.21773437 113.0478125 -14 113 C-14.09344088 98.85731349 -14.16371194 84.71467484 -14.20724869 70.57174301 C-14.22814196 64.00491394 -14.25649195 57.43829192 -14.30175781 50.87158203 C-14.34515259 44.5368165 -14.36912399 38.20225039 -14.37950897 31.86734772 C-14.38691172 29.44795847 -14.40136716 27.02858039 -14.42292023 24.60927582 C-14.45186866 21.22592908 -14.45595947 17.84341117 -14.45410156 14.45996094 C-14.46848267 13.45511154 -14.48286377 12.45026215 -14.49768066 11.41496277 C-14.47459551 7.541413 -14.42318119 4.80022159 -12.59661865 1.34625244 C-8.53069204 -0.7617828 -4.4882084 -0.3083502 0 0 Z " fill="#FEF8EF" transform="translate(71,57)"/>
<path d="M0 0 C0.89203125 0.03609375 1.7840625 0.0721875 2.703125 0.109375 C3.71632813 0.17898437 3.71632813 0.17898437 4.75 0.25 C4.84264814 10.74192952 4.91373867 21.23376185 4.95724869 31.726017 C4.97813056 36.59792776 5.00645914 41.46955882 5.05175781 46.34130859 C5.09519419 51.04214988 5.11913259 55.74272201 5.12950897 60.44374847 C5.13690432 62.23794544 5.15134567 64.03212754 5.17292023 65.82621002 C5.20192537 68.33791528 5.20595729 70.84850599 5.20410156 73.36035156 C5.22567322 74.47489464 5.22567322 74.47489464 5.24768066 75.61195374 C5.22007938 79.06067333 4.98298198 80.93447284 2.90911865 83.74310303 C0.75 85.25 0.75 85.25 -2.25 85.25 C-2.25 94.82 -2.25 104.39 -2.25 114.25 C-4.56 114.25 -6.87 114.25 -9.25 114.25 C-9.34343942 99.97692907 -9.41371123 85.70390557 -9.45724869 71.43059158 C-9.47814226 64.80322935 -9.50649282 58.17607227 -9.55175781 51.54882812 C-9.5951515 45.15570809 -9.61912377 38.76278564 -9.62950897 32.36952972 C-9.63691192 29.92781207 -9.65136773 27.48610549 -9.67292023 25.04447174 C-9.70186718 21.62999418 -9.70595952 18.21633791 -9.70410156 14.80175781 C-9.71848267 13.78755768 -9.73286377 12.77335754 -9.74768066 11.72842407 C-9.70771777 4.96174071 -9.70771777 4.96174071 -7.54974365 1.60614014 C-4.78789861 -0.02249743 -3.18327012 -0.16754053 0 0 Z " fill="#FEF6EC" transform="translate(87.25,56.75)"/>
<path d="M0 0 C2.31 0 4.62 0 7 0 C7.0700808 14.14271531 7.12278414 28.28540369 7.15543652 42.42825699 C7.17110635 48.99503849 7.19236894 55.56170351 7.22631836 62.12841797 C7.2588644 68.46317442 7.27684308 74.79781869 7.28463173 81.13265228 C7.29018376 83.55202755 7.30102522 85.97139654 7.31719017 88.39072418 C7.33890081 91.77396515 7.34196954 95.15673988 7.34057617 98.54003906 C7.35675491 100.04731316 7.35675491 100.04731316 7.3732605 101.58503723 C7.36707451 102.9689994 7.36707451 102.9689994 7.36076355 104.38092041 C7.36352893 105.18103672 7.36629431 105.98115303 7.36914349 106.80551529 C6.90165912 109.58461702 5.9269566 110.96819661 4 113 C1.30078125 113.390625 1.30078125 113.390625 -1.6875 113.25 C-2.68136719 113.21390625 -3.67523438 113.1778125 -4.69921875 113.140625 C-5.45847656 113.09421875 -6.21773437 113.0478125 -7 113 C-7.11580971 102.50811332 -7.20467261 92.01637847 -7.25906086 81.523983 C-7.28516364 76.65198962 -7.32057402 71.78043325 -7.37719727 66.90869141 C-7.43149292 62.20783438 -7.4614154 57.50739789 -7.47438622 52.80625153 C-7.48363053 51.01203031 -7.50168269 49.21783233 -7.52865028 47.42378998 C-7.56490935 44.91190217 -7.56994686 42.40175551 -7.56762695 39.88964844 C-7.59459152 38.77510536 -7.59459152 38.77510536 -7.62210083 37.63804626 C-7.58379715 33.80927764 -7.29557245 32.30570409 -4.58952332 29.50689697 C-2 28 -2 28 0 28 C0 18.76 0 9.52 0 0 Z " fill="#FEF9EF" transform="translate(142,57)"/>
<path d="M0 0 C1.03125 0.00322266 2.0625 0.00644531 3.125 0.00976562 C4.74535156 0.02233398 4.74535156 0.02233398 6.3984375 0.03515625 C8.03039062 0.04192383 8.03039062 0.04192383 9.6953125 0.04882812 C12.38807539 0.06063849 15.08072938 0.07710847 17.7734375 0.09765625 C17.91897349 3.99309502 18.00758809 7.88783276 18.0859375 11.78515625 C18.12783203 12.88794922 18.16972656 13.99074219 18.21289062 15.12695312 C18.22900391 16.19365234 18.24511719 17.26035156 18.26171875 18.359375 C18.28790283 19.33865967 18.31408691 20.31794434 18.34106445 21.3269043 C17.7734375 24.09765625 17.7734375 24.09765625 12.7734375 29.09765625 C7.4934375 29.09765625 2.2134375 29.09765625 -3.2265625 29.09765625 C-3.2265625 43.28765625 -3.2265625 57.47765625 -3.2265625 72.09765625 C-5.8665625 72.09765625 -8.5065625 72.09765625 -11.2265625 72.09765625 C-11.31932237 63.57873472 -11.39035732 55.06002487 -11.43381119 46.54072285 C-11.45466902 42.58466542 -11.48295286 38.628954 -11.52832031 34.6730957 C-11.57184371 30.85404761 -11.59571319 27.03533192 -11.60607147 23.21605492 C-11.6134513 21.76039587 -11.6278627 20.30475463 -11.64948273 18.84923744 C-11.67860526 16.80705358 -11.68251514 14.76623571 -11.68066406 12.72387695 C-11.68954651 11.5624971 -11.69842896 10.40111725 -11.70758057 9.20454407 C-11.12459009 5.43901812 -9.86115493 3.79726792 -7.2265625 1.09765625 C-4.66933021 -0.1809599 -2.85919148 -0.01570984 0 0 Z " fill="#FCF1E5" transform="translate(110.2265625,98.90234375)"/>
<path d="M0 0 C1.33333333 0.33333333 2.66666667 0.66666667 4 1 C4.33 0.67 4.66 0.34 5 0 C7.875 -0.3125 7.875 -0.3125 11 0 C13.7571147 2.29759558 13.98247267 3.87949963 14.5 7.4375 C14 11 14 11 11.8125 13.9375 C8.80004811 16.14663138 7.62732988 16.51818998 4 16 C4 17.98 4 19.96 4 22 C2.68 22.33 1.36 22.66 0 23 C-0.19588601 19.3545658 -0.38030536 15.7086421 -0.5625 12.0625 C-0.61857422 11.02158203 -0.67464844 9.98066406 -0.73242188 8.90820312 C-0.78076172 7.91884766 -0.82910156 6.92949219 -0.87890625 5.91015625 C-0.9260376 4.99371338 -0.97316895 4.07727051 -1.02172852 3.13305664 C-1 1 -1 1 0 0 Z " fill="#100600" transform="translate(115,188)"/>
<path d="M0 0 C1.32 0 2.64 0 4 0 C4 2.64 4 5.28 4 8 C6.64 8 9.28 8 12 8 C12 5.36 12 2.72 12 0 C13.32 0 14.64 0 16 0 C16 6.93 16 13.86 16 21 C14.68 21 13.36 21 12 21 C12 18.03 12 15.06 12 12 C9.36 12 6.72 12 4 12 C4 14.97 4 17.94 4 21 C2.68 21 1.36 21 0 21 C0 14.07 0 7.14 0 0 Z " fill="#200C00" transform="translate(71,183)"/>
<path d="M0 0 C3.375 0.4375 3.375 0.4375 5.375 2.4375 C5.8125 4.875 5.8125 4.875 5.375 7.4375 C2.51396577 9.67993223 1.03423696 10.4375 -2.625 10.4375 C-2.625 11.4275 -2.625 12.4175 -2.625 13.4375 C0.84 12.9425 0.84 12.9425 4.375 12.4375 C4.705 13.4275 5.035 14.4175 5.375 15.4375 C2.17820709 17.03589645 -1.15512416 16.93421024 -4.625 16.4375 C-7.51980534 14.17593333 -7.59918644 12.64032084 -8.0625 9 C-7.36972034 3.35879417 -5.81104119 0.70133256 0 0 Z " fill="#341300" transform="translate(97.625,187.5625)"/>
<path d="M0 0 C0.66 0.33 1.32 0.66 2 1 C2.25 3.8125 2.25 3.8125 2 7 C0.25 8.875 0.25 8.875 -2 10 C-3.32 10 -4.64 10 -6 10 C-5.67 10.66 -5.34 11.32 -5 12 C-2.69 12 -0.38 12 2 12 C2 12.99 2 13.98 2 15 C-1.0832635 16.54163175 -3.60878099 16.29747535 -7 16 C-9.28545181 14.23061796 -9.84903918 12.92086098 -10.3125 10.09375 C-10.52635185 6.51173153 -10.36118971 4.55567648 -8.375 1.5 C-5.36278626 -0.40245078 -3.50337981 -0.38080215 0 0 Z " fill="#0C0400" transform="translate(141,188)"/>
<path d="M0 0 C1.32 0 2.64 0 4 0 C4 6.27 4 12.54 4 19 C4.99 19 5.98 19 7 19 C7 19.99 7 20.98 7 22 C4.625 22.125 4.625 22.125 2 22 C0 20 0 20 -0.22705078 17.93701172 C-0.21657715 17.10959473 -0.20610352 16.28217773 -0.1953125 15.4296875 C-0.18886719 14.53378906 -0.18242188 13.63789063 -0.17578125 12.71484375 C-0.15902344 11.77769531 -0.14226562 10.84054688 -0.125 9.875 C-0.11597656 8.93011719 -0.10695313 7.98523438 -0.09765625 7.01171875 C-0.07404522 4.67422708 -0.04111516 2.33723877 0 0 Z " fill="#1A0900" transform="translate(105,182)"/>
<path d="M0 0 C1.32 0 2.64 0 4 0 C4 3.3 4 6.6 4 10 C5.65 10 7.3 10 9 10 C9 10.33 9 10.66 9 11 C7.35 11 5.7 11 4 11 C4 14.3 4 17.6 4 21 C2.68 21 1.36 21 0 21 C0 14.07 0 7.14 0 0 Z " fill="#010000" transform="translate(71,183)"/>
<path d="M0 0 C1.33333333 0.33333333 2.66666667 0.66666667 4 1 C4.33 0.67 4.66 0.34 5 0 C6.66617115 -0.04063832 8.33388095 -0.042721 10 0 C9.75 1.875 9.75 1.875 9 4 C8.34 4.268125 7.68 4.53625 7 4.8125 C4.74358016 5.83370299 4.74358016 5.83370299 4.390625 8.3828125 C4.34421875 9.28773438 4.2978125 10.19265625 4.25 11.125 C4.19328125 12.03507813 4.1365625 12.94515625 4.078125 13.8828125 C4.05234375 14.58148438 4.0265625 15.28015625 4 16 C2.68 16 1.36 16 0 16 C-0.19389096 13.5211787 -0.38040123 11.04219069 -0.5625 8.5625 C-0.61857422 7.85544922 -0.67464844 7.14839844 -0.73242188 6.41992188 C-0.86190993 4.61572163 -0.93521608 2.80768048 -1 1 C-0.67 0.67 -0.34 0.34 0 0 Z " fill="#1A0900" transform="translate(146,188)"/>
<path d="M0 0 C5.75 -0.125 5.75 -0.125 8 1 C8.25 3.8125 8.25 3.8125 8 7 C6.125 8.875 6.125 8.875 4 10 C3.34 10 2.68 10 2 10 C2 9.34 2 8.68 2 8 C1.34 7.67 0.68 7.34 0 7 C0 4.69 0 2.38 0 0 Z " fill="#451900" transform="translate(135,188)"/>
<path d="M0 0 C0.99 0 1.98 0 3 0 C4.38125018 2.76250036 4.19079306 4.94731099 4 8 C3.34 8.66 2.68 9.32 2 10 C0.68 10 -0.64 10 -2 10 C-2.25 3.375 -2.25 3.375 0 0 Z " fill="#E35300" transform="translate(121,191)"/>
<path d="M0 0 C1.65 0.33 3.3 0.66 5 1 C5.125 3.375 5.125 3.375 5 6 C4.34 6.66 3.68 7.32 3 8 C0.875 7.625 0.875 7.625 -1 7 C-0.67 4.69 -0.34 2.38 0 0 Z " fill="#0C0400" transform="translate(98,189)"/>
</svg>
